<?xml version="1.0" encoding="utf-8"?>
<!-- Generator: Adobe Illustrator 22.0.1, SVG Export Plug-In . SVG Version: 6.00 Build 0)  -->
<svg version="1.1" id="logo_x5F_plx_x5F_workflows_x5F_192px"
	 xmlns="http://www.w3.org/2000/svg" xmlns:xlink="http://www.w3.org/1999/xlink" x="0px" y="0px" viewBox="0 0 48 48"
	 style="enable-background:new 0 0 48 48;" xml:space="preserve">
<style type="text/css">
	.st0{fill:#FFFFFF;}
</style>
<path class="st0" d="M38,28c-2.2,0-4,1.8-4,4c0,0.2,0,0.4,0.1,0.5l-7.6,4.3C25.8,36.3,24.9,36,24,36c-0.9,0-1.8,0.3-2.5,0.9
	l-7.6-4.3c0-0.2,0.1-0.3,0.1-0.5s0-0.4-0.1-0.5l7.6-4.3c0.7,0.5,1.5,0.9,2.5,0.9c2.2,0,4-1.8,4-4c0-0.2,0-0.4-0.1-0.5l7.6-4.3
	c0.7,0.5,1.5,0.9,2.5,0.9c2.2,0,4-1.8,4-4s-1.8-4-4-4c-0.9,0-1.8,0.3-2.5,0.9l-7.6-4.3C28,8.4,28,8.2,28,8c0-2.2-1.8-4-4-4
	s-4,1.8-4,4c0,0.2,0,0.4,0.1,0.5l-7.6,4.3C11.8,12.3,10.9,12,10,12c-2.2,0-4,1.8-4,4s1.8,4,4,4s4-1.8,4-4c0-0.2,0-0.4-0.1-0.5
	l7.6-4.3c0.7,0.5,1.5,0.9,2.5,0.9c0.9,0,1.8-0.3,2.5-0.9l7.6,4.3c0,0.2-0.1,0.3-0.1,0.5s0,0.4,0.1,0.5l-7.6,4.3
	C25.8,20.3,24.9,20,24,20c-2.2,0-4,1.8-4,4c0,0.2,0,0.4,0.1,0.5l-7.6,4.3C11.8,28.3,10.9,28,10,28c-2.2,0-4,1.8-4,4s1.8,4,4,4
	c0.9,0,1.8-0.3,2.5-0.9l7.6,4.3c0,0.2-0.1,0.3-0.1,0.5c0,2.2,1.8,4,4,4s4-1.8,4-4c0-0.2,0-0.4-0.1-0.5l7.6-4.3
	c0.7,0.5,1.5,0.9,2.5,0.9c2.2,0,4-1.8,4-4S40.2,28,38,28z"/>
</svg>
